HIERARCHY
ROOT Hips
{
	OFFSET 0.00000 0.00000 0.00000
	CHANNELS 6 Xposition Yposition Zposition Zrotation Yrotation Xrotation 
	JOINT LHipJoint
	{
		OFFSET 0 0 0
		CHANNELS 3 Zrotation Yrotation Xrotation
		JOINT LeftUpLeg
		{
			OFFSET 1.85590 -1.73949 0.84976
			CHANNELS 3 Zrotation Yrotation Xrotation
			JOINT LeftLeg
			{
				OFFSET 2.36836 -6.50702 0.00000
				CHANNELS 3 Zrotation Yrotation Xrotation
				JOINT LeftFoot
				{
					OFFSET 2.53268 -6.95849 0.00000
					CHANNELS 3 Zrotation Yrotation Xrotation
					JOINT LeftToeBase
					{
						OFFSET 0.15935 -0.43781 1.94506
						CHANNELS 3 Zrotation Yrotation Xrotation
						End Site
						{
							OFFSET 0.00000 -0.00000 1.00661
						}
					}
				}
			}
		}
	}
	JOINT RHipJoint
	{
		OFFSET 0 0 0
		CHANNELS 3 Zrotation Yrotation Xrotation
		JOINT RightUpLeg
		{
			OFFSET -1.68297 -1.73949 0.84976
			CHANNELS 3 Zrotation Yrotation Xrotation
			JOINT RightLeg
			{
				OFFSET -2.44709 -6.72334 0.00000
				CHANNELS 3 Zrotation Yrotation Xrotation
				JOINT RightFoot
				{
					OFFSET -2.43843 -6.69953 0.00000
					CHANNELS 3 Zrotation Yrotation Xrotation
					JOINT RightToeBase
					{
						OFFSET -0.20854 -0.57295 2.02172
						CHANNELS 3 Zrotation Yrotation Xrotation
						End Site
						{
							OFFSET -0.00000 -0.00000 1.05594
						}
					}
				}
			}
		}
	}
	JOINT LowerBack
	{
		OFFSET 0 0 0
		CHANNELS 3 Zrotation Yrotation Xrotation
		JOINT Spine
		{
			OFFSET -0.01560 2.23971 -0.03712
			CHANNELS 3 Zrotation Yrotation Xrotation
			JOINT Spine1
			{
				OFFSET 0.05490 2.19225 -0.19086
				CHANNELS 3 Zrotation Yrotation Xrotation
				JOINT Neck
				{
					OFFSET 0 0 0
					CHANNELS 3 Zrotation Yrotation Xrotation
					JOINT Neck1
					{
						OFFSET -0.12403 1.43168 0.27585
						CHANNELS 3 Zrotation Yrotation Xrotation
						JOINT Head
						{
							OFFSET 0.17855 1.46173 -0.32578
							CHANNELS 3 Zrotation Yrotation Xrotation
							End Site
							{
								OFFSET 0.07217 1.51590 -0.14537
							}
						}
					}
				}
				JOINT LeftShoulder
				{
					OFFSET 0 0 0
					CHANNELS 3 Zrotation Yrotation Xrotation
					JOINT LeftArm
					{
						OFFSET 3.27650 0.85634 0.05396
						CHANNELS 3 Zrotation Yrotation Xrotation
						JOINT LeftForeArm
						{
							OFFSET 4.96755 -0.00000 0.00000
							CHANNELS 3 Zrotation Yrotation Xrotation
							JOINT LeftHand
							{
								OFFSET 3.35751 -0.00000 0.00000
								CHANNELS 3 Zrotation Yrotation Xrotation
								JOINT LeftFingerBase
								{
									OFFSET 0 0 0
									CHANNELS 3 Zrotation Yrotation Xrotation
									JOINT LeftHandIndex1
									{
										OFFSET 0.79697 -0.00000 0.00000
										CHANNELS 3 Zrotation Yrotation Xrotation
										End Site
										{
											OFFSET 0.64254 -0.00000 0.00000
										}
									}
								}
								JOINT LThumb
								{
									OFFSET 0 0 0
									CHANNELS 3 Zrotation Yrotation Xrotation
									End Site
									{
										OFFSET 0.65235 -0.00000 0.65235
									}
								}
							}
						}
					}
				}
				JOINT RightShoulder
				{
					OFFSET 0 0 0
					CHANNELS 3 Zrotation Yrotation Xrotation
					JOINT RightArm
					{
						OFFSET -3.24434 1.02034 0.34688
						CHANNELS 3 Zrotation Yrotation Xrotation
						JOINT RightForeArm
						{
							OFFSET -5.21859 -0.00000 -0.00000
							CHANNELS 3 Zrotation Yrotation Xrotation
							JOINT RightHand
							{
								OFFSET -3.36504 -0.00000 0.00000
								CHANNELS 3 Zrotation Yrotation Xrotation
								JOINT RightFingerBase
								{
									OFFSET 0 0 0
									CHANNELS 3 Zrotation Yrotation Xrotation
									JOINT RightHandIndex1
									{
										OFFSET -0.62044 -0.00000 0.00000
										CHANNELS 3 Zrotation Yrotation Xrotation
										End Site
										{
											OFFSET -0.50022 -0.00000 0.00000
										}
									}
								}
								JOINT RThumb
								{
									OFFSET 0 0 0
									CHANNELS 3 Zrotation Yrotation Xrotation
									End Site
									{
										OFFSET -0.50786 -0.00000 0.50786
									}
								}
							}
						}
					}
				}
			}
		}
	}
}
MOTION
Frames: 4
Frame Time: .0083333
8.181000 15.762500 -33.338800 -5.047400 -4.745500 8.635900 0.000000 0.000000 0.000000 -9.268800 -7.144500 -46.441600 3.358700 11.254300 33.142400 0.364500 3.711100 -13.382000 0.648000 -5.149300 -14.335000 0.000000 0.000000 0.000000 30.101400 5.418700 2.466400 -1.145800 -6.797000 19.115300 -1.252300 11.079700 -20.317300 -0.553100 4.764100 -13.237000 0.667400 1.937000 -2.670500 3.929200 2.489700 0.419200 3.773000 1.232200 1.781300 -12.463600 -4.483500 -21.662300 13.239500 -5.126800 16.789400 5.997100 -1.751800 9.561500 0.000000 0.000000 0.000000 -83.957500 20.199500 45.712400 12.341800 -20.315200 -2.219500 -0.000000 0.000000 -0.924400 15.233900 -27.006000 -7.049400 -7.125000 0.000000 -0.000000 -8.862800 2.423900 8.584700 0.000000 0.000000 0.000000 73.322200 8.437500 53.166500 -24.885700 36.086900 -8.222500 0.000000 -0.000000 -20.939700 -33.485600 -18.157400 11.648300 7.125000 -0.000000 -0.000000 -5.528400 -51.363600 0.868800
8.190700 15.736100 -33.104100 -5.238600 -5.196900 8.841900 0.000000 0.000000 0.000000 -8.358600 -7.804100 -46.255500 2.768400 10.310400 29.988000 0.383300 3.520000 -13.524200 0.687200 -5.299700 -14.765200 0.000000 0.000000 0.000000 30.099900 5.049700 3.732200 -1.019400 -6.423200 18.017300 -1.198700 11.397600 -19.963200 -0.536800 4.694700 -13.039800 0.666200 2.101700 -2.815700 3.934000 2.704100 0.454500 3.794500 1.338300 1.886100 -12.446700 -4.464100 -21.642200 13.408800 -5.126500 16.580200 6.049700 -1.733400 9.490900 -0.000000 0.000000 0.000000 -84.169300 20.932800 43.932000 12.096900 -19.949700 -2.135200 -0.000000 0.000000 -0.272000 14.076800 -25.857500 -6.241100 -7.125000 0.000000 -0.000000 -9.478200 3.740500 8.965400 -0.000000 0.000000 0.000000 73.008600 9.599300 53.749500 -25.335400 36.544800 -8.488800 0.000000 -0.000000 -21.012000 -33.695600 -18.771100 12.110400 7.125000 -0.000000 -0.000000 -5.697200 -52.111400 1.000100
8.205100 15.711600 -32.865500 -5.479800 -5.561900 8.933200 0.000000 0.000000 0.000000 -7.336700 -8.489200 -45.889000 2.278100 9.422800 27.127200 0.468700 2.904900 -14.321500 0.530400 -4.667100 -12.961400 0.000000 0.000000 0.000000 30.072300 4.337200 5.033800 -0.896200 -6.033500 16.881700 -1.140500 12.074600 -19.649500 -0.423600 4.177000 -11.575200 0.778700 2.187200 -2.938400 3.981100 2.805800 0.541400 3.792800 1.388300 2.041400 -12.227300 -4.356700 -21.667200 13.227900 -4.993700 16.472100 5.961300 -1.675700 9.426500 -0.000000 0.000000 0.000000 -84.490000 21.620600 42.200500 11.855900 -19.588200 -2.053700 -0.000000 0.000000 -0.231400 12.787700 -25.195100 -5.518800 -7.125000 0.000000 -0.000000 -10.221800 4.572500 9.530300 -0.000000 0.000000 0.000000 72.698800 10.711900 54.394700 -25.784000 36.994700 -8.757400 0.000000 -0.000000 -20.983800 -34.032700 -19.789300 12.879000 7.125000 -0.000000 -0.000000 -5.965800 -53.351500 1.228900
8.221600 15.687300 -32.624700 -5.992000 -5.712600 8.993400 0.000000 0.000000 0.000000 -5.986700 -9.266300 -45.555000 1.885400 8.623200 24.623500 0.517100 2.822400 -14.905900 0.387200 -3.995600 -11.064400 0.000000 0.000000 0.000000 30.351900 3.620400 6.378100 -0.774200 -5.618000 15.679900 -1.029800 12.313600 -18.846600 -0.492200 4.498100 -12.482300 1.294200 2.340700 -3.040100 4.119500 2.980900 0.618700 3.662400 1.479500 2.187000 -12.281000 -4.413700 -21.420400 13.079200 -5.032100 16.269100 5.901600 -1.721300 9.314100 -0.000000 0.000000 0.000000 -84.807800 22.042600 40.711000 11.387200 -18.879300 -1.899300 -0.000000 0.000000 -0.061900 11.602200 -24.605400 -4.886000 -7.125000 0.000000 -0.000000 -10.917200 5.304400 10.049400 -0.000000 0.000000 0.000000 72.305300 11.615900 54.682100 -26.140500 37.347200 -8.972800 0.000000 -0.000000 -21.123500 -34.711000 -19.873500 13.250900 7.125000 -0.000000 -0.000000 -6.694300 -53.592900 1.419500
